<svg width="543" height="407" viewBox="0 0 543 407" fill="none" xmlns="http://www.w3.org/2000/svg">
<path d="M383.953 264.551C474.379 266.059 506.954 359.432 513.794 288.595C520.406 220.13 436.722 62.9205 368.358 54.9747C307.952 47.9539 324.775 99.8283 256.367 124.315C187.961 148.803 141.405 70.6919 95.7691 113.881C59.1444 148.541 104.139 175.273 57.8623 276.565C35.8092 324.835 128.768 383.119 201.733 369.708C306.213 350.505 293.528 263.043 383.953 264.551Z" fill="#E63946"/>
<path fill-rule="evenodd" clip-rule="evenodd" d="M238.458 358.461C265.899 345.974 282.168 327.484 297.374 310.203C318.857 285.788 338.215 263.788 383.953 264.551C427.277 265.273 457.322 287.084 477.619 301.818C499.685 317.837 510.231 325.492 513.794 288.595C520.405 220.13 436.722 62.9205 368.357 54.9747C335.99 51.2128 325.796 64.3598 312.783 81.143C307.146 88.412 300.981 96.3634 292.256 103.918C355.951 109.811 419.527 133.419 405.65 186.384C393.613 232.322 360.629 245.083 330.644 256.683C326.911 258.128 323.224 259.553 319.63 261.024C288.533 273.743 258.307 286.107 247.253 331.171C244.765 341.312 241.79 350.374 238.458 358.461Z" fill="black" fill-opacity="0.14"/>
<path fill-rule="evenodd" clip-rule="evenodd" d="M216.115 40.2502L213.731 42.4714L217.497 43.1107L246.598 103.253L200.05 144.841L202.049 148.308L293.541 164.202L337.599 116.72L307.635 55.5058L216.207 40.2682L216.115 40.2502Z" fill="#1D3557"/>
<path fill-rule="evenodd" clip-rule="evenodd" d="M216.115 40.2502L213.731 42.4714L217.497 43.1107L246.598 103.253L200.05 144.841L202.049 148.308L293.541 164.202L337.599 116.72L307.635 55.5058L216.207 40.2682L216.115 40.2502Z" fill="black" fill-opacity="0.31"/>
<path d="M200.267 144.965L242.332 100.115L333.853 115.368L291.787 160.218L200.267 144.965Z" fill="#1D3557"/>
<path d="M213.72 42.4504L242.332 100.115L333.852 115.368L305.24 57.7034L213.72 42.4504Z" fill="#1D3557"/>
<path d="M213.72 42.4504L242.332 100.115L333.852 115.368L305.24 57.7034L213.72 42.4504Z" fill="white" fill-opacity="0.19"/>
<path d="M219.558 45.9939L245.389 98.0545L328.015 111.825L302.183 59.7645L219.558 45.9939Z" fill="white" fill-opacity="0.58"/>
<path d="M127.884 199.597C127.884 199.597 133.03 180.436 120.331 163.531L136.634 148.181L138.591 158.703C150 155.491 156.354 181.021 152.038 191.971C148.695 200.451 136.931 199.597 127.884 199.597Z" fill="#DAC3A1"/>
<path d="M373.1 298.771L391.261 306.119L384.717 319.346L366.482 312.071L373.1 298.771Z" fill="#CEB186"/>
<path fill-rule="evenodd" clip-rule="evenodd" d="M194.019 198.8C194.019 198.8 194.019 198.8 193.519 199.265L194.019 198.8L194.263 199.062L194.186 199.411C193.789 201.226 192.377 203.247 190.473 205.245C188.548 207.264 186.04 209.341 183.319 211.264C177.894 215.097 171.51 218.394 167.055 219.376L166.761 218.041C170.957 217.118 177.167 213.938 182.53 210.149C185.202 208.261 187.636 206.24 189.483 204.302C191.205 202.495 192.35 200.829 192.763 199.458C192.695 199.388 192.615 199.304 192.523 199.207C192.2 198.87 191.729 198.383 191.138 197.786C189.956 196.592 188.297 194.96 186.385 193.21C182.545 189.694 177.755 185.763 173.805 183.9L174.389 182.664C178.543 184.624 183.465 188.685 187.309 192.204C189.24 193.972 190.916 195.62 192.11 196.825C192.707 197.428 193.183 197.921 193.511 198.263C193.675 198.434 193.801 198.568 193.887 198.659C193.93 198.705 193.963 198.74 193.985 198.763L194.01 198.79L194.019 198.799L194.019 198.8Z" fill="#1D3557"/>
<path fill-rule="evenodd" clip-rule="evenodd" d="M155.364 197.387C167.375 195.774 181.147 189.093 187.815 168.834C189.175 164.7 191.637 157.708 194.656 151.069C196.163 147.755 197.87 144.395 199.714 141.472C201.474 138.684 203.721 135.706 206.481 133.735C209.562 131.534 213.845 132.246 216.047 135.326C218.249 138.406 217.536 142.686 214.455 144.886C213.891 145.289 212.789 146.45 211.314 148.787C209.923 150.989 208.507 153.739 207.142 156.741C204.415 162.736 202.131 169.203 200.843 173.117C192.255 199.209 173.468 208.785 157.191 210.972C153.438 211.476 149.986 208.844 149.481 205.093C148.977 201.342 151.61 197.892 155.364 197.387Z" fill="#CEB186"/>
<path fill-rule="evenodd" clip-rule="evenodd" d="M188.552 200.774C180.561 210.681 169.789 216.168 160.415 219.144C131.894 228.197 129.031 201.332 152.396 193.915C158.697 191.915 164.254 188.72 167.929 184.163C167.929 184.163 191.155 197.547 188.552 200.774Z" fill="#1D3557"/>
<path fill-rule="evenodd" clip-rule="evenodd" d="M188.552 200.774C180.561 210.681 169.789 216.168 160.415 219.144C131.894 228.197 129.031 201.332 152.396 193.915C158.697 191.915 164.254 188.72 167.929 184.163C167.929 184.163 191.155 197.547 188.552 200.774Z" fill="black" fill-opacity="0.5"/>
<path fill-rule="evenodd" clip-rule="evenodd" d="M241.115 324.478C229.866 331.766 197.905 356.485 184.814 333.509C183.003 330.331 184.113 326.288 187.292 324.478C203.551 315.226 218.315 296.783 233.998 287.079C246.137 277.704 257.775 261.987 276.224 255.62C283.18 253.219 286.797 255.902 290.92 257.365C304.081 262.035 370.516 290.958 376.337 295.757C382.158 300.556 373.107 319.553 369.352 318.88C355.667 316.425 340.104 310.008 321.333 297.793C297.177 292.412 291.241 286.927 284.358 284.485C282.231 283.73 246.794 320.799 241.115 324.478Z" fill="#1D3557"/>
<path fill-rule="evenodd" clip-rule="evenodd" d="M241.594 113.278L239.062 112.852L241.486 110.637L244.018 111.063L241.594 113.278ZM250.927 115.015L245.863 114.163L249.083 111.915L254.147 112.767L250.927 115.015ZM260.76 116.731L255.696 115.879L259.212 113.619L264.276 114.472L260.76 116.731ZM270.889 118.436L265.825 117.583L269.34 115.324L274.405 116.176L270.889 118.436ZM281.51 120.12L276.446 119.267L279.469 117.028L284.533 117.88L281.51 120.12ZM291.836 121.816L286.772 120.964L289.598 118.732L294.662 119.584L291.836 121.816ZM301.669 123.532L296.605 122.68L299.726 120.436L304.791 121.289L301.669 123.532ZM309.976 125.094L307.444 124.668L309.855 122.141L312.388 122.567C316.229 123.213 312.844 125.577 309.976 125.094Z" fill="#373248"/>
<path fill-rule="evenodd" clip-rule="evenodd" d="M235.229 119.42L232.697 118.994L235.122 116.779L237.654 117.205L235.229 119.42ZM244.562 121.157L239.498 120.305L242.718 118.057L247.782 118.909L244.562 121.157ZM254.396 122.873L249.331 122.021L252.847 119.761L257.911 120.613L254.396 122.873ZM264.525 124.577L259.46 123.725L262.976 121.465L268.04 122.318L264.525 124.577ZM275.146 126.262L270.081 125.41L273.105 123.17L278.169 124.022L275.146 126.262ZM285.471 127.958L280.407 127.106L283.233 124.874L288.298 125.726L285.471 127.958ZM295.305 129.674L290.24 128.822L293.362 126.578L298.426 127.43L295.305 129.674ZM303.611 131.236L301.079 130.81L303.491 128.282L306.023 128.708C309.864 129.355 306.48 131.718 303.611 131.236Z" fill="#373248"/>
<path fill-rule="evenodd" clip-rule="evenodd" d="M228.864 125.562L226.332 125.136L228.757 122.92L231.289 123.346L228.864 125.562ZM238.197 127.299L233.133 126.446L236.353 124.199L241.417 125.051L238.197 127.299ZM248.03 129.015L242.966 128.163L246.482 125.903L251.546 126.755L248.03 129.015ZM258.159 130.719L253.095 129.867L256.61 127.607L261.675 128.459L258.159 130.719ZM268.78 132.403L263.716 131.551L266.739 129.311L271.804 130.163L268.78 132.403ZM279.106 134.1L274.042 133.248L276.868 131.016L281.933 131.868L279.106 134.1ZM288.939 135.816L283.875 134.964L286.997 132.72L292.062 133.572L288.939 135.816ZM297.246 137.377L294.714 136.951L297.126 134.424L299.658 134.851C303.499 135.497 300.115 137.86 297.246 137.377Z" fill="#373248"/>
<path fill-rule="evenodd" clip-rule="evenodd" d="M222.499 131.704L219.967 131.278L222.391 129.062L224.924 129.488L222.499 131.704ZM231.832 133.44L226.768 132.588L229.988 130.34L235.053 131.192L231.832 133.44ZM241.666 135.157L236.601 134.305L240.117 132.044L245.181 132.897L241.666 135.157ZM251.794 136.861L246.73 136.009L250.246 133.749L255.31 134.601L251.794 136.861ZM262.416 138.545L257.351 137.693L260.374 135.453L265.439 136.305L262.416 138.545ZM272.741 140.241L267.677 139.389L270.503 137.158L275.567 138.01L272.741 140.241ZM282.575 141.958L277.51 141.106L280.632 138.862L285.696 139.714L282.575 141.958ZM290.881 143.519L288.349 143.093L290.76 140.566L293.293 140.992C297.135 141.639 293.75 144.002 290.881 143.519Z" fill="#373248"/>
<path fill-rule="evenodd" clip-rule="evenodd" d="M241.594 114.128L239.062 113.702L241.486 111.487L244.018 111.913L241.594 114.128ZM250.927 115.865L245.863 115.013L249.083 112.765L254.147 113.617L250.927 115.865ZM260.76 117.582L255.696 116.729L259.212 114.469L264.276 115.321L260.76 117.582ZM270.889 119.286L265.825 118.434L269.34 116.173L274.405 117.026L270.889 119.286ZM281.51 120.97L276.446 120.118L279.469 117.878L284.533 118.73L281.51 120.97ZM291.836 122.666L286.772 121.814L289.598 119.582L294.662 120.435L291.836 122.666ZM301.669 124.383L296.605 123.531L299.726 121.287L304.791 122.139L301.669 124.383ZM309.976 125.944L307.444 125.518L309.855 122.991L312.388 123.417C316.229 124.063 312.844 126.426 309.976 125.944Z" fill="#A8DADC"/>
<path fill-rule="evenodd" clip-rule="evenodd" d="M235.229 120.271L232.697 119.845L235.122 117.628L237.654 118.055L235.229 120.271ZM244.562 122.007L239.498 121.155L242.718 118.907L247.782 119.759L244.562 122.007ZM254.396 123.723L249.331 122.871L252.847 120.611L257.911 121.464L254.396 123.723ZM264.525 125.427L259.46 124.575L262.976 122.316L268.04 123.168L264.525 125.427ZM275.146 127.112L270.081 126.26L273.105 124.02L278.169 124.872L275.146 127.112ZM285.471 128.808L280.407 127.956L283.233 125.724L288.298 126.576L285.471 128.808ZM295.305 130.524L290.24 129.672L293.362 127.428L298.426 128.28L295.305 130.524ZM303.611 132.086L301.079 131.66L303.491 129.133L306.023 129.559C309.864 130.205 306.48 132.569 303.611 132.086Z" fill="#A8DADC"/>
<path fill-rule="evenodd" clip-rule="evenodd" d="M228.864 126.412L226.332 125.986L228.757 123.771L231.289 124.197L228.864 126.412ZM238.197 128.149L233.133 127.297L236.353 125.049L241.417 125.901L238.197 128.149ZM248.03 129.865L242.966 129.013L246.482 126.753L251.546 127.605L248.03 129.865ZM258.159 131.57L253.095 130.717L256.61 128.457L261.675 129.309L258.159 131.57ZM268.78 133.254L263.716 132.401L266.739 130.161L271.804 131.014L268.78 133.254ZM279.106 134.95L274.042 134.098L276.868 131.866L281.933 132.718L279.106 134.95ZM288.939 136.666L283.875 135.814L286.997 133.57L292.062 134.423L288.939 136.666ZM297.246 138.227L294.714 137.801L297.126 135.275L299.658 135.701C303.499 136.347 300.115 138.71 297.246 138.227Z" fill="#A8DADC"/>
<path fill-rule="evenodd" clip-rule="evenodd" d="M222.499 132.554L219.967 132.128L222.391 129.912L224.924 130.338L222.499 132.554ZM231.832 134.29L226.768 133.438L229.988 131.19L235.053 132.042L231.832 134.29ZM241.666 136.007L236.601 135.155L240.117 132.895L245.181 133.747L241.666 136.007ZM251.794 137.711L246.73 136.859L250.246 134.599L255.31 135.451L251.794 137.711ZM262.416 139.395L257.351 138.543L260.374 136.304L265.439 137.156L262.416 139.395ZM272.741 141.091L267.677 140.239L270.503 138.008L275.567 138.86L272.741 141.091ZM282.575 142.808L277.51 141.955L280.632 139.712L285.696 140.564L282.575 142.808ZM290.881 144.37L288.349 143.943L290.76 141.416L293.293 141.842C297.135 142.489 293.75 144.852 290.881 144.37Z" fill="#A8DADC"/>
<path d="M128.991 188.552C136.826 191.379 150.959 189.383 153.592 190.63C156.226 191.877 156.965 194.087 156.965 194.087C128.257 191.574 124.527 200.644 124.527 200.644C127.808 193.723 126.497 187.652 128.991 188.552Z" fill="#1D3557"/>
<path d="M389.992 246.934L425.184 253.119L410.045 266.965L388.758 263.848L389.992 246.934Z" fill="#DAC3A1"/>
<path fill-rule="evenodd" clip-rule="evenodd" d="M263.924 237.893C264.755 237.414 265.618 236.917 266.513 236.401C280.056 228.585 299.436 233.035 314.212 233.181C347.618 233.512 400.582 235.903 405.578 243.124C407.418 248.372 403.458 258.722 399.411 267.44C395.364 276.158 365.63 267.302 339.887 264.454C315.146 261.716 293.403 259.177 287.521 261.211C281.64 263.246 275.979 273.948 274.356 276.183C262.805 294.92 226.047 340.209 206.375 347.866C183.74 356.677 152.861 330.183 146.771 317.531C185.57 291.018 223.217 261.356 263.924 237.893Z" fill="#A8DADC"/>
<path fill-rule="evenodd" clip-rule="evenodd" d="M330.827 250.53C307.779 249.184 287.47 248.318 280.788 248.886C278.844 249.051 276.512 250.036 273.85 251.735C271.2 253.426 268.282 255.787 265.178 258.624C258.968 264.3 252.073 271.827 245.144 279.581C243.687 281.212 242.227 282.853 240.773 284.488C235.324 290.617 229.945 296.668 224.976 301.816C218.705 308.313 212.994 313.473 208.554 315.506C201.457 318.757 193.093 318.068 186.535 316.077C183.249 315.079 180.378 313.743 178.305 312.374C177.271 311.691 176.415 310.987 175.806 310.294C175.212 309.619 174.778 308.872 174.756 308.111C174.745 307.734 175.043 307.42 175.419 307.409C175.797 307.398 176.111 307.695 176.122 308.072C176.13 308.357 176.314 308.803 176.832 309.392C177.335 309.964 178.086 310.592 179.059 311.236C181.001 312.518 183.748 313.803 186.932 314.77C193.316 316.708 201.306 317.324 207.984 314.265C212.154 312.355 217.698 307.389 223.993 300.867C228.94 295.742 234.295 289.719 239.74 283.593C241.197 281.955 242.66 280.309 244.124 278.671C251.051 270.92 257.989 263.345 264.255 257.617C267.389 254.752 270.371 252.334 273.115 250.584C275.845 248.84 278.401 247.718 280.672 247.525C287.478 246.946 307.913 247.824 330.907 249.167C353.933 250.511 379.606 252.327 396.947 253.642C397.323 253.67 397.605 253.998 397.576 254.374C397.548 254.751 397.22 255.032 396.843 255.004C379.508 253.69 353.843 251.874 330.827 250.53Z" fill="#1D3557"/>
<path fill-rule="evenodd" clip-rule="evenodd" d="M203.929 298.926C200.733 296.579 197.054 295.07 194.656 294.404L195.022 293.088C197.548 293.79 201.385 295.363 204.738 297.825C208.083 300.281 211.042 303.695 211.601 308.094C211.648 308.467 211.383 308.809 211.009 308.857C210.635 308.904 210.293 308.64 210.245 308.265C209.753 304.397 207.132 301.278 203.929 298.926Z" fill="#1D3557"/>
<path d="M151.572 334.935C119.496 315.382 107.944 259.332 118.563 212.9C124.947 184.988 155.495 192.231 155.495 192.231C155.495 192.231 191.822 235.399 181.973 255.742C178.759 262.381 187.908 267.674 194.135 273.819C199.431 279.045 199.97 281.589 199.97 281.589C199.97 281.589 183.648 354.487 151.572 334.935Z" fill="#1D3557"/>
<path d="M128.991 188.552C136.826 191.379 150.959 189.383 153.592 190.63C156.226 191.877 156.965 194.087 156.965 194.087C128.257 191.574 124.527 200.644 124.527 200.644C127.808 193.723 126.496 187.652 128.991 188.552Z" fill="black" fill-opacity="0.5"/>
<path fill-rule="evenodd" clip-rule="evenodd" d="M174.554 211.038C190.817 212.864 211.072 208.588 226.39 184.351C227.038 183.325 227.882 181.875 228.883 180.153C231.602 175.477 235.486 168.798 239.786 163.189C245.581 155.631 254.494 146.634 266.478 146.407L266.773 161.98C262.576 162.059 257.648 165.5 252.157 172.662C248.487 177.449 245.635 182.367 243.068 186.794C241.856 188.883 240.708 190.863 239.567 192.669C220.52 222.806 193.935 228.888 172.813 226.516L174.554 211.038Z" fill="#DAC3A1"/>
<path fill-rule="evenodd" clip-rule="evenodd" d="M216.039 224.758C202.647 234.865 187.114 238.43 174.176 239.233C145.364 241.021 138.901 216.35 150.895 205.565C155.289 201.613 163.365 204.947 172.013 204.41C180.709 203.87 188.839 201.565 194.998 196.916C194.998 196.916 220.402 221.464 216.039 224.758Z" fill="#1D3557"/>
<path fill-rule="evenodd" clip-rule="evenodd" d="M223.228 222.566C223.228 222.566 223.228 222.566 222.609 222.856L223.228 222.566L223.368 222.864L223.221 223.16C222.156 225.304 219.756 227.318 216.717 229.166C213.653 231.029 209.833 232.785 205.791 234.371C197.705 237.543 188.647 240.067 182.771 241.421L182.464 240.091C188.294 238.746 197.284 236.242 205.292 233.1C209.297 231.529 213.036 229.806 216.007 227.999C218.841 226.276 220.882 224.53 221.843 222.842C221.805 222.766 221.76 222.676 221.708 222.573C221.518 222.199 221.235 221.654 220.861 220.976C220.113 219.62 219.006 217.737 217.572 215.633C214.696 211.415 210.534 206.35 205.346 202.846L206.111 201.715C211.503 205.357 215.78 210.58 218.701 214.863C220.164 217.01 221.294 218.931 222.058 220.317C222.44 221.01 222.731 221.569 222.928 221.957C223.026 222.151 223.1 222.301 223.15 222.405C223.175 222.457 223.194 222.496 223.207 222.523L223.222 222.554L223.226 222.562L223.228 222.566Z" fill="#A8DADC"/>
<path d="M288.335 142.496C286.143 135.528 281.977 135.752 281.977 135.752L271.696 136.31C271.696 136.31 264.458 141.568 252.288 150.941C253.162 152.797 253.637 156.194 257.824 159.946C258.873 160.887 264.797 166.028 277.849 155.889C291.144 156.346 291.499 152.556 288.335 142.496Z" fill="#DAC3A1"/>
<path d="M234.731 126.739C233.061 121.429 229.886 121.599 229.886 121.599L222.052 122.025C222.052 122.025 213.631 124.893 204.572 135.14C205.238 136.553 208.29 137.177 211.481 140.037C212.281 140.754 215.422 140.917 225.368 133.191C235.5 133.539 237.143 134.404 234.731 126.739Z" fill="#CEB186"/>
<path d="M222.612 143.896C219.675 145.357 213.758 143.818 211.167 142.866L212.286 136.237L221.18 132.464C221.184 133.941 221.533 137.022 222.899 137.534C224.605 138.173 227.103 137.371 228.736 138.616C230.368 139.862 226.282 142.069 222.612 143.896Z" fill="#CEB186"/>
<path fill-rule="evenodd" clip-rule="evenodd" d="M200.192 221.877C196.112 217.512 191.536 213.081 188.569 210.336L189.498 209.333C192.482 212.095 197.082 216.55 201.19 220.945C203.243 223.142 205.18 225.331 206.733 227.29C208.272 229.233 209.478 231.003 210.017 232.353L208.748 232.86C208.288 231.71 207.195 230.073 205.662 228.138C204.141 226.219 202.232 224.06 200.192 221.877Z" fill="#A8DADC"/>
<path d="M166.931 175.863C171.032 170.487 160.36 143.164 148.401 133.052C136.441 122.94 105.523 142.217 106.389 160.069C107.799 189.176 117.681 159.197 129.343 163.011C134.339 164.645 148.459 180.888 148.459 180.888C148.459 180.888 162.83 181.239 166.931 175.863Z" fill="#DAC3A1"/>
<path fill-rule="evenodd" clip-rule="evenodd" d="M308.576 64.4253L303.272 63.5886C298.358 62.8135 300.244 71.7961 309.153 72.8597C310.188 72.9832 311.508 73.1724 313.034 73.4112L308.576 64.4253ZM316.24 79.8723L310.853 79.0224C305.939 78.2477 307.825 87.2302 316.735 88.2939C317.788 88.4193 319.138 88.6133 320.699 88.8582L316.24 79.8723ZM323.904 95.3187L318.434 94.4558C313.521 93.6805 315.406 102.663 324.316 103.727C325.387 103.855 326.767 104.054 328.362 104.305L323.904 95.3187Z" fill="#040404" fill-opacity="0.33"/>
<path d="M129.656 160.001C119.532 165.572 109.045 160.001 105.067 156.52C93.5307 142.516 118.55 122.272 126.398 121.215C133.092 120.313 138.182 113.595 141.098 109.51C141.843 115.035 136.506 120.292 134.685 122.509C140.227 118.081 155.554 114.128 162.744 114.328C158.105 116.943 153.146 122.287 151.877 124.795C153.758 123.139 160.507 121.587 163.646 121.018C160.894 124.457 161.817 132.732 160.961 138.12C160.107 143.499 160.058 145.741 153.495 146.626C147.992 147.367 157.145 159.27 152.121 161.043C147.098 162.815 137.193 158.985 129.656 160.001Z" fill="#1D3557"/>
<path d="M102.669 165.832C98.2724 158.741 103.66 152.555 106.903 150.349L129.704 145.002L141.609 151.195C137.496 150.011 136.824 154.076 135.942 158.037C134.839 162.988 148.093 171.783 144.76 180.826C142.094 188.061 120.818 193.143 117.51 192.998C118.294 192.556 118.127 185.387 117.51 180.819C116.741 175.109 108.165 174.697 102.669 165.832Z" fill="#1D3557"/>
<path d="M168.524 157.392C167.917 155.629 162.488 151.438 159.85 149.563L164.463 161.516C166.07 160.876 169.131 159.156 168.524 157.392Z" fill="#DAC3A1"/>
<path fill-rule="evenodd" clip-rule="evenodd" d="M236.26 87.8782L268.806 93.7315L266.724 88.604L233.894 83.1095L236.26 87.8782ZM230.856 76.9882L264.421 83.0247L262.34 77.8972L228.497 72.2331L230.856 76.9882ZM225.912 67.023C236.257 68.9283 246.582 70.97 246.582 70.97C255.894 72.4393 251.558 62.5502 245.329 61.5677L221.326 57.781L225.912 67.023Z" fill="black" fill-opacity="0.14"/>
<path d="M137.501 151.926C141.5 148.71 144.854 151.964 144.854 155.088C144.854 160.282 150.125 161.646 150.125 161.646C149.731 163.006 147.946 165.861 143.955 166.399C139.965 166.937 137.36 164.288 136.557 162.896C135.205 160.579 133.502 155.141 137.501 151.926Z" fill="#DAC3A1"/>
<path d="M196.959 57.4817L240.592 64.3652C246.82 65.3478 251.156 75.2368 241.844 73.7675C241.844 73.7675 211.749 67.8165 202.84 66.7527C193.93 65.689 192.045 56.7065 196.959 57.4817Z" fill="#E63946"/>
<path d="M296.013 65.875L339.646 72.7586C345.875 73.7408 350.21 83.6296 340.899 82.161C340.899 82.161 310.804 76.2099 301.894 75.1463C292.985 74.082 291.099 65.0998 296.013 65.875Z" fill="#A8DADC"/>
<path d="M303.594 81.3085L347.227 88.1923C353.456 89.1752 357.791 99.0639 348.48 97.5946C348.48 97.5946 318.385 91.6436 309.476 90.58C300.566 89.5164 298.68 80.5339 303.594 81.3085Z" fill="#A8DADC"/>
<path d="M311.176 96.7419L354.81 103.626C361.038 104.609 365.374 114.497 356.062 113.028C356.062 113.028 325.967 107.077 317.057 106.013C308.148 104.95 306.263 95.9672 311.176 96.7419Z" fill="#A8DADC"/>
<path d="M388.663 304.979L381.283 315.725C379.08 318.224 378.642 315.302 376.958 316.673C375.274 318.044 382.851 325.823 386.224 328.474C389.597 331.126 394.617 322.548 399.084 315.861C403.55 309.172 415.858 301.144 418.072 298.813C420.284 296.481 423.297 290.946 422.723 288.316C421.979 284.899 419.065 284.498 415.323 288.1C412.166 291.139 397.008 299.168 388.663 304.979Z" fill="#E63946"/>
<path d="M384.056 303.438C385.666 303.906 386.726 307.299 387.055 308.938L389.187 310.103L402.225 305.827C402.447 303.316 402.232 298.682 399.594 300.232C396.957 301.782 387.864 300.596 383.648 299.809C383.113 300.824 382.446 302.97 384.056 303.438Z" fill="#E63946"/>
<path d="M390.621 327.106C389.205 328.299 385.469 327.255 383.779 326.584C383.986 328.417 384.561 328.514 388.873 331.661C393.184 334.808 400.764 323.948 401.683 321.343C402.6 318.738 409.465 309.411 413.452 308.963C417.44 308.515 426.097 294.306 425.924 290.613C425.784 287.658 422.895 286.073 421.518 285.797C427.335 294.425 406.211 308.486 403.085 310.128C399.959 311.771 392.392 325.616 390.621 327.106Z" fill="#1D3557"/>
<path d="M393.489 296.548C393.261 295.964 393.571 295.375 394.183 295.232C394.794 295.089 395.474 295.447 395.702 296.032L398.371 302.864C398.599 303.448 398.288 304.037 397.677 304.18C397.065 304.323 396.385 303.965 396.156 303.38L393.489 296.548Z" fill="#1D3557"/>
<path d="M399.754 293.128C399.525 292.543 399.836 291.954 400.447 291.812C401.058 291.669 401.739 292.027 401.967 292.612L404.635 299.443C404.864 300.027 404.553 300.617 403.942 300.759C403.33 300.902 402.649 300.544 402.421 299.96L399.754 293.128Z" fill="#1D3557"/>
<path d="M218.133 74.0881L257.601 80.6937L259.683 85.8213L220.679 78.8066L218.133 74.0881Z" fill="#E63946"/>
<path d="M222.518 84.7952L261.986 91.4008L264.068 96.529L225.064 89.5137L222.518 84.7952Z" fill="#E63946"/>
<path opacity="0.9" d="M273.517 32.4361L232.898 25.6311L249.685 62.6638L289.67 69.7061L273.517 32.4361Z" fill="white" fill-opacity="0.54"/>
<path d="M243.518 33.926L268.936 38.1978L270.346 41.4983L244.965 37.004L243.518 33.926Z" fill="black" fill-opacity="0.1"/>
<path d="M246.642 40.865L271.918 45.0869L273.256 48.3705L248.091 43.848L246.642 40.865Z" fill="black" fill-opacity="0.1"/>
<path d="M249.505 47.0571L274.534 51.2596L275.955 54.5864L250.879 50.0505L249.505 47.0571Z" fill="black" fill-opacity="0.1"/>
<path d="M252.626 53.9531L277.574 58.1985L279.053 61.4118L254.057 57.0726L252.626 53.9531Z" fill="black" fill-opacity="0.1"/>
<path d="M242.07 36.0557L267.489 40.3274L268.899 43.628L243.519 39.1337L242.07 36.0557Z" fill="#1D3557"/>
<path d="M245.195 42.9946L270.473 47.2165L271.81 50.5002L246.645 45.9777L245.195 42.9946Z" fill="#1D3557"/>
<path d="M248.059 49.1868L273.087 53.3892L274.509 56.716L249.433 52.1802L248.059 49.1868Z" fill="#1D3557"/>
<path d="M251.181 56.0828L276.129 60.3281L277.607 63.5415L252.612 59.2023L251.181 56.0828Z" fill="#1D3557"/>
<path d="M420.676 252.474L409.887 264.928C406.767 267.757 406.629 264.025 404.321 265.509C402.013 266.993 410.43 277.833 414.291 281.639C418.152 285.446 425.671 275.382 432.226 267.613C438.781 259.843 455.557 252.218 458.667 249.603C461.776 246.987 466.71 239.597 466.876 236.2C467.042 232.802 460.771 230.368 455.848 235.237C451.91 239.132 431.978 246.354 420.676 252.474Z" fill="#E63946"/>
<path d="M415.107 249.889C417.063 250.703 417.915 255.116 418.096 257.22L420.609 258.984L437.59 255.455C438.224 252.333 438.609 246.481 435.077 248.056C431.545 249.631 420.292 246.856 415.107 245.272C414.293 246.472 413.151 249.074 415.107 249.889Z" fill="#E63946"/>
<path d="M420.008 280.543C418.06 281.841 413.516 280.002 411.487 278.921C411.487 281.253 412.197 281.455 417.167 286.017C422.138 290.578 433.193 278.009 434.715 274.866C436.237 271.724 446.176 260.979 451.248 260.979C456.319 260.979 469.201 244.355 469.506 239.692C469.749 235.961 466.344 233.562 464.653 233.022C470.739 244.679 442.22 259.357 438.062 260.979C433.904 262.6 422.442 278.921 420.008 280.543Z" fill="#1D3557"/>
<path d="M427.928 242.567C427.724 241.801 428.198 241.105 428.986 241.012C429.773 240.919 430.577 241.465 430.782 242.231L433.167 251.188C433.371 251.954 432.897 252.651 432.109 252.744C431.321 252.836 430.517 252.29 430.313 251.524L427.928 242.567Z" fill="#1D3557"/>
<path d="M436.281 239.156C436.077 238.39 436.55 237.694 437.338 237.601C438.126 237.508 438.93 238.054 439.134 238.82L441.519 247.777C441.723 248.543 441.25 249.239 440.462 249.332C439.674 249.425 438.87 248.879 438.666 248.113L436.281 239.156Z" fill="#1D3557"/>
<path fill-rule="evenodd" clip-rule="evenodd" d="M327.484 87.8741C327.62 87.7432 327.836 87.7473 327.967 87.8836L330.449 90.464L328.156 91.9509C327.998 92.0533 327.786 92.0086 327.684 91.8498C327.58 91.6918 327.626 91.4801 327.784 91.3777L329.383 90.3412L327.474 88.3564C327.344 88.2207 327.348 88.0043 327.484 87.8741Z" fill="#E8ECFA"/>
<path fill-rule="evenodd" clip-rule="evenodd" d="M322.165 87.2872C322.018 87.1684 321.803 87.1908 321.685 87.3374L320.046 89.3608L322.161 90.9169C322.313 91.0288 322.527 90.9963 322.639 90.8443C322.75 90.6924 322.718 90.4787 322.566 90.3668L321.027 89.2347L322.216 87.7674C322.335 87.6202 322.312 87.4052 322.165 87.2872Z" fill="#E8ECFA"/>
<path d="M393.336 40.0102L419.044 33.8977L420.121 38.4192L394.412 44.5316L393.336 40.0102Z" fill="#1D3557"/>
<path d="M395.248 48.0432L487.772 26.0442L488.848 30.5657L396.325 52.5647L395.248 48.0432Z" fill="#1D3557"/>
<path d="M397.161 56.0761L489.684 34.0771L490.761 38.5986L398.238 60.5976L397.161 56.0761Z" fill="#1D3557"/>
<path d="M400.985 72.142L426.694 66.0293L427.77 70.5507L402.062 76.6631L400.985 72.142Z" fill="#1D3557"/>
<path d="M402.898 80.1749L453.28 68.1956L454.357 72.7173L403.975 84.696L402.898 80.1749Z" fill="#1D3557"/>
<path d="M406.724 96.2406L432.431 90.1282L433.508 94.6493L407.8 100.762L406.724 96.2406Z" fill="#1D3557"/>
<path d="M408.637 104.273L459.017 92.2947L460.093 96.8158L409.713 108.794L408.637 104.273Z" fill="#1D3557"/>
<path d="M412.462 120.339L438.17 114.227L439.246 118.748L413.538 124.861L412.462 120.339Z" fill="#1D3557"/>
<path d="M414.376 128.372L506.895 106.374L507.972 110.895L415.452 132.893L414.376 128.372Z" fill="#1D3557"/>
<path d="M416.288 136.405L508.806 114.406L509.883 118.928L417.364 140.926L416.288 136.405Z" fill="#1D3557"/>
<path d="M52.516 28.2834L78.8045 30.964L78.3328 35.5877L52.0439 32.9071L52.516 28.2834Z" fill="#1D3557"/>
<path d="M51.6781 36.498L140.612 45.5663L140.14 50.1899L51.2061 41.1218L51.6781 36.498Z" fill="#1D3557"/>
<path d="M50.8392 44.7126L139.773 53.7808L139.3 58.4045L50.3672 49.3363L50.8392 44.7126Z" fill="#1D3557"/>
<path d="M49.1625 61.1416L75.4516 63.8222L74.9792 68.4458L48.6904 65.7653L49.1625 61.1416Z" fill="#1D3557"/>
<path d="M48.3245 69.3562L109.975 75.6423L109.503 80.2658L47.8525 73.9797L48.3245 69.3562Z" fill="#1D3557"/>
<path d="M46.6478 85.7854L72.9364 88.4655L72.4646 93.0897L46.1758 90.4089L46.6478 85.7854Z" fill="#1D3557"/>
<path d="M45.8099 94L107.459 100.286L106.987 104.91L45.3379 98.6235L45.8099 94Z" fill="#1D3557"/>
<path d="M44.1331 110.428L70.4217 113.109L69.95 117.733L43.6611 115.053L44.1331 110.428Z" fill="#1D3557"/>
</svg>
